# xmcd
#
# Track frame offsets: 
#        150
#        11956
#        24355
#        34742
#        46256
#        56694
#        67251
#        77941
#        89379
#        101474
#        112528
#        121955
#
# Disc length: 1806 seconds
#
# Revision: 0
# Processed by: cddbd v1.5.2PL0 Copyright (c) Steve Scherf et al.
# Submitted via: ExactAudioCopyFreeDBPlugin 1.0
#
DISCID=95070c0c
DTITLE=Patsy Cline - Untitled, Best of
DYEAR=1900
DGENRE=Country
TTITLE0=Walkin' After Midnight
TTITLE1=A Poor Man's Rose, Or A Rich Man's Gold
TTITLE2=Pick me Up, On Your Way Down
TTITLE3=Crazy Dreams
TTITLE4=Three Cigarettes In An Ashtray
TTITLE5=Lovesick Blues
TTITLE6=Honky Tonk Merry Go Round
TTITLE7=The Heart You Break May Be Your Own
TTITLE8=Today, Tomorrow, and Forever
TTITLE9=There He Goes
TTITLE10=I Love You Honey
TTITLE11=A Church, A Courtroom, and Then Goodbye
EXTD=
EXTT0=
EXTT1=
EXTT2=
EXTT3=
EXTT4=
EXTT5=
EXTT6=
EXTT7=
EXTT8=
EXTT9=
EXTT10=
EXTT11=
PLAYORDER=
